<?xml version="1.0" encoding="utf-8"?>
<!-- Generator: Adobe Illustrator 25.0.0, SVG Export Plug-In . SVG Version: 6.00 Build 0)  -->
<svg version="1.1" id="Layer_1" xmlns="http://www.w3.org/2000/svg" xmlns:xlink="http://www.w3.org/1999/xlink" x="0px" y="0px"
	 viewBox="0 0 24 24" style="enable-background:new 0 0 24 24;" xml:space="preserve">
<style type="text/css">
	.st0{fill:none;}
	.st1{fill:#FFFFFF;}
</style>
<path class="st0" d="M0,0h24v24H0V0z"/>
<g>
	<g>
		<g>
			<path class="st1" d="M16.5,12.1c0-1.7-1-3.2-2.5-3.9v2.2l2.5,2.4C16.5,12.5,16.5,12.3,16.5,12.1z"/>
			<path class="st1" d="M19,12.1c0,0.9-0.2,1.8-0.5,2.6l1.5,1.5c0.7-1.2,1-2.6,1-4.1c0-4.2-3-7.7-7-8.6v2C16.9,6.4,19,9,19,12.1z"/>
			<polygon class="st1" points="12,4.2 9.9,6.3 12,8.3 			"/>
			<path class="st1" d="M4.1,3.5L3.3,4.2c-0.2,0.2-0.2,0.5,0,0.6L7.5,9c0.1,0.1,0,0.2-0.1,0.2H3.1C3,9.1,3,9.2,3,9.2v5.7
				C3,15,3,15,3.1,15H7C7,15,7,15,7,15l4.8,4.7c0.1,0.1,0.2,0,0.2-0.1v-6.1c0-0.1,0.1-0.1,0.2-0.1l4,3.9c0,0,0,0.1,0,0.2
				c-0.6,0.5-1.3,0.8-2.1,1.1c0,0-0.1,0-0.1,0.1c0,0.3,0,1.4,0,1.8c0,0.1,0.1,0.1,0.1,0.1c1.3-0.3,2.5-0.9,3.5-1.7c0,0,0.1,0,0.1,0
				l1.4,1.4c0.4,0.4,0.8,0.4,1.1,0.1l0.4-0.4c0.2-0.2,0.2-0.5,0-0.7L12,10.8L4.5,3.5C4.4,3.4,4.2,3.4,4.1,3.5z"/>
		</g>
	</g>
</g>
</svg>
